<?xml version="1.0" encoding="UTF-8"?>
<svg id="Camada_1" xmlns="http://www.w3.org/2000/svg" version="1.1" viewBox="0 0 301.12 203.86">
  <!-- Generator: Adobe Illustrator 30.2.1, SVG Export Plug-In . SVG Version: 2.1.1 Build 1)  -->
  <defs>
    <style>
      .st0 {
        fill-rule: evenodd;
      }
    </style>
  </defs>
  <g>
    <path class="st0" d="M211.31,16.84c-5.79-4.66-14.61-3.62-19.27,2.16-2.06,2.56-2.97,5.51-3.27,8.68-.2,2.14-.89,4.08-1.83,5.97-3.06,6.14-7.45,11.18-12.75,15.46-6.25,5.05-13.12,8.54-21.34,8.9-3.66.16-6.73,1.9-9.11,4.63-7.06,8.06-2.73,20.82,7.73,22.91h0c7.92,1.58,15.46-3.97,16.53-12.01.3-2.24.86-4.49,1.72-6.57,3.99-9.48,10.71-16.55,19.63-21.53,4.31-2.4,8.92-3.75,13.92-3.72,4.13.02,7.56-1.78,10.16-4.94,5.1-6.2,4.1-14.93-2.14-19.96h.01,0Z"/>
    <polygon class="st0" points="114.76 15.33 133.25 15.33 133.25 3.36 84.27 3.36 84.27 15.33 102.78 15.33 102.78 84.4 84.29 84.4 84.29 96.38 133.25 96.38 133.25 84.4 114.76 84.4 114.76 15.33 114.76 15.33 114.76 15.33"/>
    <path class="st0" d="M22.2,3.36L5.04,23.4v72.99h11.96v-37.54h37.58v37.54h11.96V23.22L47.61,3.36h-25.41ZM54.58,46.88H17v-19.04l10.7-12.49h14.78l12.09,12.67v18.86h0Z"/>
    <path class="st0" d="M296.08,23.22l-18.98-19.86h-42.66v93.02h11.99v-37.54h28.49l9.16,13.8v23.72h11.99v-27.34l-10.09-15.21,10.09-9.59v-21.03h.01ZM284.08,39.1l-8.19,7.77h-29.47V15.33h25.55l12.12,12.67v11.1h-.01Z"/>
  </g>
  <rect x="5.04" y="122.5" width="289.85" height="2"/>
  <g>
    <path d="M259.27,144.52v17.35c-.89-1.03-1.96-1.86-3.24-2.51-1.74-.89-3.75-1.33-6.02-1.33-2.68,0-5.09.63-7.23,1.89s-3.82,3-5.09,5.19c-1.26,2.19-1.89,4.67-1.89,7.4s.6,5.21,1.84,7.4c1.26,2.19,2.95,3.95,5.09,5.24,2.17,1.26,4.6,1.89,7.33,1.89,2.17,0,4.16-.44,5.96-1.33,1.44-.7,2.6-1.65,3.51-2.86v3.56h5.59v-41.9h-5.88.02ZM258.11,177.23c-.72,1.37-1.77,2.46-3.09,3.24-1.3.79-2.77,1.19-4.4,1.19s-3.17-.4-4.51-1.19c-1.3-.79-2.32-1.88-3.03-3.24-.72-1.4-1.1-2.98-1.1-4.72s.37-3.31,1.1-4.68,1.77-2.46,3.09-3.24c1.32-.79,2.81-1.19,4.45-1.19s3.1.4,4.4,1.19c1.33.79,2.35,1.88,3.09,3.24.77,1.37,1.14,2.93,1.14,4.68s-.39,3.31-1.14,4.72h0Z"/>
    <path d="M225.51,159.37c-1.6-.89-3.46-1.33-5.54-1.33s-3.81.46-5.35,1.39c-1.1.65-2,1.51-2.67,2.6v-3.37h-5.65v27.73h5.93v-16.36c0-1.37.26-2.54.79-3.54.53-1,1.26-1.74,2.19-2.26.98-.54,2.07-.82,3.3-.82s2.32.28,3.24.82c.98.51,1.72,1.26,2.26,2.26.53.95.79,2.14.79,3.54v16.36h5.86v-17.89c0-2.05-.46-3.86-1.35-5.44-.91-1.58-2.16-2.81-3.77-3.68h-.04Z"/>
    <polygon points="193.36 158.64 199.3 158.64 199.3 186.38 193.36 186.38 193.36 158.64 193.36 158.64"/>
    <path d="M181.8,159.37c-1.56-.89-3.33-1.33-5.3-1.33-2.23,0-4.23.54-5.96,1.65-1.19.75-2.14,1.77-2.91,3.07-.67-1.14-1.6-2.12-2.81-2.91-1.74-1.19-3.75-1.81-6.02-1.81-2.02,0-3.82.49-5.38,1.44-1.05.65-1.89,1.51-2.51,2.58v-3.4h-5.65v27.73h5.93v-16.36c0-1.37.25-2.54.72-3.54.53-1,1.23-1.74,2.14-2.26.91-.54,1.95-.82,3.14-.82s2.26.28,3.14.82c.91.51,1.6,1.26,2.1,2.26.53.95.79,2.14.79,3.54v16.36h5.86v-16.36c0-1.37.26-2.54.79-3.54.53-1,1.23-1.74,2.14-2.26.91-.54,1.95-.82,3.14-.82s2.23.28,3.09.82c.91.51,1.6,1.26,2.1,2.26.53.95.79,2.14.79,3.54v16.36h5.93v-17.94c0-2.02-.47-3.81-1.42-5.38-.93-1.58-2.23-2.81-3.82-3.68h-.02Z"/>
    <path d="M104.56,159.46c-1.05.6-1.89,1.49-2.51,2.68v-3.56h-5.67v27.8h5.93v-16.03c0-2.19.6-3.86,1.79-5.03,1.23-1.19,2.81-1.81,4.77-1.81h2.47v-5.3h-1.72c-1.96,0-3.63.4-5.03,1.23h-.02l-.02.02Z"/>
    <path d="M87.05,162.11c-1.14-1.26-2.56-2.26-4.24-2.96-1.68-.72-3.58-1.07-5.72-1.07-2.65,0-5.03.63-7.14,1.89-2.1,1.23-3.77,2.93-5.03,5.09-1.23,2.16-1.84,4.65-1.84,7.44s.61,5.23,1.84,7.44c1.23,2.19,2.91,3.95,5.09,5.23,2.19,1.26,4.72,1.89,7.54,1.89,1.93,0,3.68-.3,5.3-.88,1.65-.61,3.03-1.44,4.19-2.47,1.19-1.07,2.05-2.24,2.61-3.54l-4.82-2.32c-.7,1.19-1.65,2.17-2.89,2.93-1.19.75-2.65,1.12-4.35,1.12s-3.17-.4-4.51-1.19c-1.3-.79-2.32-1.88-3.03-3.28-.47-.96-.75-2.03-.81-3.24h21.1c.11-.4.18-.86.21-1.33.04-.49.05-.95.05-1.39,0-1.81-.32-3.53-.93-5.14-.6-1.61-1.47-3.03-2.61-4.26h0v.05ZM70.08,167.39c.67-1.44,1.6-2.54,2.82-3.28,1.23-.79,2.61-1.19,4.19-1.19s2.93.4,4.09,1.19c1.19.75,2.05,1.81,2.61,3.12.33.72.51,1.51.54,2.35h-14.94c.14-.81.35-1.54.67-2.21h.02v.02Z"/>
    <polygon points="46.84 178.12 39.47 158.6 33.03 158.6 44.14 186.38 49.54 186.38 60.71 158.6 54.22 158.6 46.84 178.12 46.84 178.12 46.84 178.12"/>
    <polygon points="5.04 186.38 30.72 186.38 30.72 181.01 11.2 181.01 11.2 166.25 26.88 166.25 26.88 160.86 11.2 160.86 11.2 149.9 30.72 149.9 30.72 144.5 5.04 144.5 5.04 186.38 5.04 186.38 5.04 186.38"/>
    <polygon points="197.48 149.02 193.36 149.02 193.36 154.85 199.3 154.85 199.3 150.44 203.43 150.44 203.43 144.62 197.48 144.62 197.48 149.02 197.48 149.02 197.48 149.02"/>
    <polygon points="136.44 158.69 128.32 178.91 120.33 158.65 114.05 158.65 125.13 186.84 119.66 200.5 126.1 200.5 131.43 187.08 131.52 187.03 131.48 186.93 142.69 158.69 136.44 158.69 136.44 158.69 136.44 158.69"/>
  </g>
</svg>