<?xml version="1.0" encoding="UTF-8"?>
<svg id="Camada_1" xmlns="http://www.w3.org/2000/svg" version="1.1" viewBox="0 0 262.9 63">
  <!-- Generator: Adobe Illustrator 30.2.1, SVG Export Plug-In . SVG Version: 2.1.1 Build 1)  -->
  <defs>
    <style>
      .st0 {
        fill: #e41d13;
      }
    </style>
  </defs>
  <path class="st0" d="M93,63c-13.9,0-25.9-7.8-25.9-24s12.2-24.5,24.9-24.5,3.5,0,4.6.3V0h15.7v59.1c-3.8,1.9-11.2,3.9-19.3,3.9ZM92.5,50.2c1.3,0,3,0,4.1-.4v-22c-1.1-.4-2.4-.6-4.2-.6-5,0-9.5,2.9-9.5,11.5s4.1,11.5,9.6,11.5Z"/>
  <path class="st0" d="M164.7,38.6c0,14.2-9.8,24.4-24,24.4s-24.5-11.6-24.5-24.1,9.3-24.5,24.5-24.5,24,10.4,24,24.2ZM140.7,50.3c5.3,0,8.3-4.4,8.3-11.7s-3.1-11.5-8.4-11.5-8.6,4-8.6,11.2,2.9,12,8.7,12Z"/>
  <path class="st0" d="M184.4,0v15c1.3-.3,3.1-.6,5.6-.6,9.2,0,23.8,4.4,23.8,23.6s-14.1,25-26,25-14.3-1.4-19.2-3.4V0h15.8ZM188.4,50.2c6.3,0,9.7-4.4,9.7-11.8s-2.5-11.2-9.8-11.2-2.9.3-3.9.5v22c1.2.4,2.6.5,4,.5Z"/>
  <path class="st0" d="M262.8,37.3c0,2.2-.2,4.5-.4,6.3h-29.4c1.8,4.5,6.1,6.7,12.9,6.7s9.1-.9,13.3-2.9l.2,12.5c-4.6,2.3-9.5,3.1-15.9,3.1-15.8,0-26.3-8.7-26.3-24.6s10.1-24.1,23.4-24.1,22.3,8.8,22.3,22.9l-.1.1ZM248.1,33.4c-.4-4.2-3-7.2-7.6-7.2s-7.2,2.3-8.2,7.2h15.8Z"/>
  <polygon class="st0" points="41.4 61.7 36.3 47.6 23.6 47.6 34.3 20.7 50.5 61.7 69.7 61.7 44 0 25.9 0 0 61.7 41.4 61.7 41.4 61.7"/>
</svg>