<?xml version="1.0" encoding="UTF-8"?>
<svg id="Camada_1" xmlns="http://www.w3.org/2000/svg" version="1.1" viewBox="0 0 301.12 203.86">
  <!-- Generator: Adobe Illustrator 30.2.1, SVG Export Plug-In . SVG Version: 2.1.1 Build 1)  -->
  <defs>
    <style>
      .st0 {
        fill-rule: evenodd;
      }
    </style>
  </defs>
  <g>
    <path class="st0" d="M211.31,23.99c-5.79-4.66-14.61-3.62-19.27,2.16-2.06,2.56-2.97,5.51-3.27,8.68-.2,2.14-.89,4.08-1.83,5.97-3.06,6.14-7.45,11.18-12.75,15.46-6.25,5.05-13.12,8.54-21.34,8.9-3.66.16-6.73,1.9-9.11,4.63-7.06,8.06-2.73,20.82,7.73,22.91h0c7.92,1.58,15.46-3.97,16.53-12.01.3-2.24.86-4.49,1.72-6.57,3.99-9.48,10.71-16.55,19.63-21.53,4.31-2.4,8.92-3.75,13.92-3.72,4.13.02,7.56-1.78,10.16-4.94,5.1-6.2,4.1-14.93-2.14-19.96h.01,0Z"/>
    <polygon class="st0" points="114.76 22.47 133.25 22.47 133.25 10.5 84.27 10.5 84.27 22.47 102.78 22.47 102.78 91.55 84.29 91.55 84.29 103.53 133.25 103.53 133.25 91.55 114.76 91.55 114.76 22.47 114.76 22.47 114.76 22.47"/>
    <path class="st0" d="M22.2,10.5L5.04,30.54v72.99h11.96v-37.54h37.58v37.54h11.96V30.36l-18.93-19.86h-25.41ZM54.58,54.02H17v-19.04l10.7-12.49h14.78l12.09,12.67v18.86h0Z"/>
    <path class="st0" d="M296.08,30.36l-18.98-19.86h-42.66v93.02h11.99v-37.54h28.49l9.16,13.8v23.72h11.99v-27.34l-10.09-15.21,10.09-9.59v-21.03h.01ZM284.08,46.24l-8.19,7.77h-29.47v-31.54h25.55l12.12,12.67v11.1h-.01Z"/>
  </g>
  <rect x="5.04" y="129.64" width="289.85" height="2"/>
  <g>
    <path d="M236.34,192.67v-41.08h15.26c2.81,0,5.3.52,7.44,1.54,2.17.99,3.88,2.46,5.06,4.41,1.2,1.91,1.81,4.21,1.81,6.89s-.62,4.93-1.86,6.84c-1.2,1.91-2.87,3.39-5.01,4.41-2.14,1.02-4.63,1.54-7.44,1.54h-8.61v15.44h-6.65v.02ZM242.99,171.44h8.79c1.5,0,2.81-.3,3.94-.89,1.14-.59,2.01-1.39,2.64-2.42.64-1.07.95-2.32.95-3.76s-.32-2.66-.95-3.69c-.64-1.07-1.52-1.87-2.64-2.42-1.14-.59-2.44-.89-3.94-.89h-8.79v14.06h0v.02Z"/>
    <path d="M236.34,192.67v-41.08h15.26c2.81,0,5.3.52,7.44,1.54,2.17.99,3.88,2.46,5.06,4.41,1.2,1.91,1.81,4.21,1.81,6.89s-.62,4.93-1.86,6.84c-1.2,1.91-2.87,3.39-5.01,4.41-2.14,1.02-4.63,1.54-7.44,1.54h-8.61v15.44h-6.65v.02ZM242.99,171.44h8.79c1.5,0,2.81-.3,3.94-.89,1.14-.59,2.01-1.39,2.64-2.42.64-1.07.95-2.32.95-3.76s-.32-2.66-.95-3.69c-.64-1.07-1.52-1.87-2.64-2.42-1.14-.59-2.44-.89-3.94-.89h-8.79v14.06h0v.02Z"/>
    <polygon points="189.92 192.67 189.92 151.59 196.13 151.59 211.9 173 208.81 173 224.29 151.59 230.49 151.59 230.49 192.67 223.91 192.67 223.91 159.26 226.38 159.91 210.57 181.07 209.9 181.07 194.4 159.91 196.61 159.26 196.61 192.67 189.96 192.67 189.92 192.67 189.92 192.67"/>
    <polygon points="189.92 192.67 189.92 151.59 196.13 151.59 211.9 173 208.81 173 224.29 151.59 230.49 151.59 230.49 192.67 223.91 192.67 223.91 159.26 226.38 159.91 210.57 181.07 209.9 181.07 194.4 159.91 196.61 159.26 196.61 192.67 189.96 192.67 189.92 192.67 189.92 192.67"/>
    <path d="M168.36,193.34c-3.13,0-5.9-.65-8.34-1.94-2.41-1.29-4.3-3.06-5.7-5.3-1.35-2.24-2.02-4.8-2.02-7.66v-26.84h6.65v26.58c0,1.81.4,3.39,1.19,4.8.82,1.39,1.92,2.47,3.33,3.24,1.42.77,3.06,1.17,4.9,1.17s3.51-.38,4.9-1.17c1.42-.77,2.52-1.86,3.33-3.24.82-1.39,1.24-2.99,1.24-4.8v-26.58h6.59v26.86c0,2.87-.67,5.43-2.02,7.66-1.35,2.24-3.24,4.01-5.68,5.3-2.41,1.29-5.18,1.94-8.34,1.94h0v-.02Z"/>
    <path d="M168.36,193.34c-3.13,0-5.9-.65-8.34-1.94-2.41-1.29-4.3-3.06-5.7-5.3-1.35-2.24-2.02-4.8-2.02-7.66v-26.84h6.65v26.58c0,1.81.4,3.39,1.19,4.8.82,1.39,1.92,2.47,3.33,3.24,1.42.77,3.06,1.17,4.9,1.17s3.51-.38,4.9-1.17c1.42-.77,2.52-1.86,3.33-3.24.82-1.39,1.24-2.99,1.24-4.8v-26.58h6.59v26.86c0,2.87-.67,5.43-2.02,7.66-1.35,2.24-3.24,4.01-5.68,5.3-2.41,1.29-5.18,1.94-8.34,1.94h0v-.02Z"/>
    <path d="M131.66,192.67v-6.07h2.42c1.89,0,3.38-.53,4.51-1.6,1.14-1.1,1.69-2.57,1.69-4.41v-29h6.59v28.78c0,2.51-.53,4.66-1.57,6.5-1.02,1.84-2.49,3.28-4.45,4.3-1.92.99-4.16,1.49-6.77,1.49h-2.42v.02Z"/>
    <path d="M131.66,192.67v-6.07h2.42c1.89,0,3.38-.53,4.51-1.6,1.14-1.1,1.69-2.57,1.69-4.41v-29h6.59v28.78c0,2.51-.53,4.66-1.57,6.5-1.02,1.84-2.49,3.28-4.45,4.3-1.92.99-4.16,1.49-6.77,1.49h-2.42v.02Z"/>
    <path d="M93.71,193.01v-41.07h17.68c2.62,0,4.91.47,6.82,1.39,1.92.89,3.38,2.17,4.4,3.86,1.02,1.65,1.52,3.61,1.52,5.9,0,1.99-.53,3.79-1.57,5.47-1.02,1.6-2.61,2.91-4.78,3.86v-2.76c1.92.74,3.48,1.67,4.66,2.81,1.2,1.1,2.07,2.36,2.59,3.76.57,1.39.85,2.87.85,4.41,0,3.86-1.29,6.89-3.88,9.09-2.56,2.21-6.05,3.31-10.53,3.31h-17.73l-.03-.03ZM100.35,187.22h11.6c2.21,0,3.98-.59,5.3-1.76,1.32-1.2,1.97-2.81,1.97-4.8s-.65-3.61-1.97-4.8c-1.32-1.2-3.08-1.82-5.3-1.82h-11.6v13.17h0ZM100.35,168.3h11.22c1.81,0,3.24-.5,4.35-1.49,1.09-1.02,1.64-2.37,1.64-4.03s-.53-2.94-1.64-3.86c-1.09-.92-2.52-1.39-4.35-1.39h-11.22v10.76h0Z"/>
    <path d="M93.71,193.01v-41.07h17.68c2.62,0,4.91.47,6.82,1.39,1.92.89,3.38,2.17,4.4,3.86,1.02,1.65,1.52,3.61,1.52,5.9,0,1.99-.53,3.79-1.57,5.47-1.02,1.6-2.61,2.91-4.78,3.86v-2.76c1.92.74,3.48,1.67,4.66,2.81,1.2,1.1,2.07,2.36,2.59,3.76.57,1.39.85,2.87.85,4.41,0,3.86-1.29,6.89-3.88,9.09-2.56,2.21-6.05,3.31-10.53,3.31h-17.73l-.03-.03ZM100.35,187.22h11.6c2.21,0,3.98-.59,5.3-1.76,1.32-1.2,1.97-2.81,1.97-4.8s-.65-3.61-1.97-4.8c-1.32-1.2-3.08-1.82-5.3-1.82h-11.6v13.17h0ZM100.35,168.3h11.22c1.81,0,3.24-.5,4.35-1.49,1.09-1.02,1.64-2.37,1.64-4.03s-.53-2.94-1.64-3.86c-1.09-.92-2.52-1.39-4.35-1.39h-11.22v10.76h0Z"/>
    <polygon points="62.71 193.01 62.71 151.92 90.37 151.92 90.37 157.72 69.36 157.72 69.36 169.52 89.23 169.52 89.23 175.32 69.36 175.32 69.36 187.22 90.37 187.22 90.37 193.02 62.71 193.02 62.71 193.01 62.71 193.01"/>
    <polygon points="62.71 193.01 62.71 151.92 90.37 151.92 90.37 157.72 69.36 157.72 69.36 169.52 89.23 169.52 89.23 175.32 69.36 175.32 69.36 187.22 90.37 187.22 90.37 193.02 62.71 193.02 62.71 193.01 62.71 193.01"/>
    <polygon points="16.58 193.01 5.04 151.92 12.08 151.92 21.42 187.49 19.68 187.49 29.36 151.92 36.3 151.92 45.98 187.49 44.17 187.49 53.58 151.92 60.59 151.92 49.09 193.01 41.6 193.01 31.85 157.99 33.83 157.99 24.03 193.01 16.59 193.01 16.58 193.01 16.58 193.01"/>
    <polygon points="16.58 193.01 5.04 151.92 12.08 151.92 21.42 187.49 19.68 187.49 29.36 151.92 36.3 151.92 45.98 187.49 44.17 187.49 53.58 151.92 60.59 151.92 49.09 193.01 41.6 193.01 31.85 157.99 33.83 157.99 24.03 193.01 16.59 193.01 16.58 193.01 16.58 193.01"/>
  </g>
</svg>