<?xml version="1.0" encoding="UTF-8"?>
<svg id="Camada_1" xmlns="http://www.w3.org/2000/svg" version="1.1" viewBox="0 0 301.12 203.86">
  <!-- Generator: Adobe Illustrator 30.1.0, SVG Export Plug-In . SVG Version: 2.1.1 Build 136)  -->
  <defs>
    <style>
      .st0, .st1 {
        fill: #fff;
      }

      .st1 {
        fill-rule: evenodd;
      }
    </style>
  </defs>
  <g>
    <path class="st1" d="M211.31,26.2c-5.79-4.66-14.61-3.62-19.27,2.16-2.06,2.56-2.97,5.51-3.27,8.68-.2,2.14-.89,4.08-1.83,5.97-3.06,6.14-7.45,11.18-12.75,15.46-6.25,5.05-13.12,8.54-21.34,8.9-3.66.16-6.73,1.9-9.11,4.63-7.06,8.06-2.73,20.82,7.73,22.91h0c7.92,1.58,15.46-3.97,16.53-12.01.3-2.24.86-4.49,1.72-6.57,3.99-9.48,10.71-16.55,19.63-21.53,4.31-2.4,8.92-3.75,13.92-3.72,4.13.02,7.56-1.78,10.16-4.94,5.1-6.2,4.1-14.93-2.14-19.96h.01,0Z"/>
    <polygon class="st1" points="114.76 24.68 133.25 24.68 133.25 12.72 84.27 12.72 84.27 24.68 102.78 24.68 102.78 93.76 84.29 93.76 84.29 105.74 133.25 105.74 133.25 93.76 114.76 93.76 114.76 24.68 114.76 24.68 114.76 24.68"/>
    <path class="st1" d="M22.2,12.72L5.04,32.75v72.99h11.96v-37.54h37.58v37.54h11.96V32.57l-18.93-19.86h-25.41ZM54.58,56.24H17v-19.04l10.7-12.49h14.78l12.09,12.67v18.86h0Z"/>
    <path class="st1" d="M296.08,32.57l-18.98-19.86h-42.66v93.02h11.99v-37.54h28.49l9.16,13.8v23.72h11.99v-27.34l-10.09-15.21,10.09-9.59v-21.03h.01ZM284.08,48.46l-8.19,7.77h-29.47v-31.54h25.55l12.12,12.67v11.1h-.01Z"/>
  </g>
  <g>
    <polygon class="st1" points="43.68 168.64 36.96 168.64 43.68 175.2 43.68 168.64 43.68 168.64 43.68 168.64"/>
    <path class="st0" d="M16.71,183.55c-7.42,0-11.67-5.51-11.67-11.86s4.24-11.86,11.67-11.86c5.51,0,10.27,3.19,10.93,8.38h-4.54c-.42-2.59-3.13-4.51-6.3-4.51-4.72,0-7.05,3.57-7.05,7.97s2.39,7.97,7.05,7.97c3.22,0,5.6-1.64,6.35-4.24h4.49c-.75,4.83-4.95,8.11-10.93,8.11h0v.03Z"/>
    <path class="st0" d="M168.66,183.44c-2.26,0-4.23-.55-5.9-1.64-1.67-1.09-2.86-2.56-3.55-4.42l3.09-1.47c.64,1.32,1.52,2.35,2.65,3.11,1.11.77,2.35,1.14,3.73,1.14,1.23,0,2.25-.28,3.05-.86.82-.58,1.21-1.32,1.21-2.25,0-.65-.19-1.16-.59-1.55-.37-.41-.82-.73-1.34-.93-.52-.24-1.01-.42-1.46-.54l-3.39-.93c-2.03-.58-3.53-1.39-4.47-2.45-.92-1.06-1.38-2.3-1.38-3.72,0-1.32.33-2.44,1.01-3.39.69-.98,1.64-1.75,2.8-2.29,1.2-.55,2.54-.82,4.01-.82,1.98,0,3.76.49,5.32,1.47,1.58.98,2.72,2.35,3.39,4.13l-3.18,1.43c-.5-1.14-1.25-2.04-2.26-2.7-1.01-.68-2.13-1.02-3.39-1.02-1.14,0-2.04.28-2.72.86-.66.55-1.01,1.24-1.01,2.08,0,.63.17,1.14.5,1.55.33.38.74.68,1.21.91.47.19.93.36,1.38.49l3.68,1.06c1.84.51,3.27,1.32,4.27,2.4,1.04,1.09,1.56,2.4,1.56,3.92,0,1.23-.35,2.33-1.05,3.31-.69.98-1.66,1.75-2.89,2.29-1.23.55-2.65.82-4.27.82h-.03.01Z"/>
    <path class="st0" d="M149.04,183.44c-2.26,0-4.23-.55-5.9-1.64-1.67-1.09-2.86-2.56-3.55-4.42l3.09-1.47c.64,1.32,1.52,2.35,2.65,3.11,1.11.77,2.35,1.14,3.73,1.14,1.23,0,2.25-.28,3.05-.86.81-.58,1.21-1.32,1.21-2.25,0-.65-.19-1.16-.59-1.55-.37-.41-.82-.73-1.34-.93-.52-.24-1.01-.42-1.46-.54l-3.39-.93c-2.03-.58-3.53-1.39-4.47-2.45-.92-1.06-1.38-2.3-1.38-3.72,0-1.32.33-2.44,1.01-3.39.69-.98,1.64-1.75,2.8-2.29,1.2-.55,2.54-.82,4.01-.82,1.98,0,3.76.49,5.32,1.47,1.58.98,2.72,2.35,3.39,4.13l-3.18,1.43c-.5-1.14-1.25-2.04-2.26-2.7-1.01-.68-2.13-1.02-3.39-1.02-1.14,0-2.06.28-2.72.86-.66.55-1.01,1.24-1.01,2.08,0,.63.17,1.14.5,1.55.33.38.74.68,1.21.91.47.19.93.36,1.38.49l3.68,1.06c1.84.51,3.26,1.32,4.27,2.4,1.04,1.09,1.56,2.4,1.56,3.92,0,1.23-.35,2.33-1.05,3.31-.69.98-1.66,1.75-2.89,2.29s-2.65.82-4.27.82h-.03.01Z"/>
    <path class="st0" d="M125.09,183.44c-1.48,0-2.79-.26-3.94-.78-1.11-.55-1.99-1.29-2.65-2.2-.64-.96-.96-2.04-.96-3.27s.24-2.22.75-3.14c.52-.96,1.34-1.75,2.43-2.4,1.11-.65,2.52-1.11,4.18-1.39l8.37-1.34v3.18l-7.49,1.23c-1.46.24-2.52.69-3.18,1.34-.64.65-.96,1.46-.96,2.4s.37,1.65,1.09,2.25c.75.6,1.69.89,2.8.89,1.42,0,2.65-.28,3.68-.86,1.06-.6,1.88-1.41,2.47-2.4.61-1.01.92-2.12.92-3.35v-5.6c0-1.2-.46-2.17-1.38-2.9-.89-.77-2.08-1.14-3.57-1.14-1.29,0-2.43.33-3.44.98-.97.63-1.7,1.47-2.17,2.53l-3.39-1.71c.42-1.01,1.09-1.9,2.01-2.7.92-.82,1.99-1.46,3.22-1.92s2.52-.69,3.86-.69c1.73,0,3.25.33,4.56.98,1.32.63,2.33,1.52,3.05,2.66.75,1.11,1.14,2.43,1.14,3.92v14.96h-3.81v-4.17l.72.24c-.47.87-1.11,1.64-1.93,2.29s-1.75,1.16-2.85,1.55c-1.09.38-2.27.58-3.57.58h0l.03-.04Z"/>
    <path class="st0" d="M92.29,191.12v-30.2h3.81v4.74l-.5-.93c.84-1.32,1.98-2.35,3.44-3.11,1.46-.79,3.12-1.19,4.98-1.19,2.12,0,4.01.51,5.69,1.52,1.7,1.01,3.04,2.38,4.01,4.13.97,1.71,1.46,3.68,1.46,5.89s-.49,4.1-1.46,5.84c-.97,1.75-2.33,3.12-4.01,4.13-1.67,1.01-3.59,1.52-5.74,1.52-1.81,0-3.48-.4-4.98-1.19-1.48-.79-2.62-1.9-3.44-3.35l.63-.65v12.87h-3.88v-.03ZM103.67,179.76c1.42,0,2.7-.35,3.81-1.02,1.11-.68,1.98-1.61,2.59-2.79.64-1.2.96-2.53.96-4s-.32-2.86-.96-4c-.61-1.16-1.48-2.1-2.59-2.79-1.11-.7-2.39-1.06-3.81-1.06s-2.71.35-3.86,1.02c-1.11.68-2.01,1.62-2.67,2.82-.64,1.16-.96,2.5-.96,4s.32,2.81.96,4c.66,1.16,1.56,2.1,2.67,2.79,1.14.68,2.43,1.02,3.86,1.02h0Z"/>
    <path class="st0" d="M55.68,182.99v-22.03h3.81v4.5l-.55-.69c.56-1.39,1.46-2.45,2.67-3.18,1.23-.73,2.61-1.11,4.14-1.11,1.75,0,3.34.47,4.73,1.43,1.42.96,2.4,2.2,2.93,3.77l-1.09.04c.59-1.71,1.58-3.02,2.96-3.88,1.39-.89,2.94-1.34,4.65-1.34,1.56,0,2.96.36,4.23,1.06,1.29.7,2.3,1.69,3.05,2.94.75,1.25,1.14,2.67,1.14,4.26v14.26h-3.94v-13.03c0-1.23-.22-2.26-.66-3.11-.45-.84-1.06-1.5-1.84-1.97-.75-.49-1.65-.73-2.67-.73s-1.9.24-2.72.73c-.78.46-1.41,1.14-1.88,2.01-.45.84-.66,1.87-.66,3.07v13.03h-3.94v-13.03c0-1.23-.22-2.26-.66-3.11-.45-.84-1.06-1.5-1.84-1.97-.75-.49-1.65-.73-2.67-.73s-1.9.24-2.72.73c-.78.46-1.41,1.14-1.88,2.01-.45.84-.66,1.87-.66,3.07v13.03h-3.88v-.03h-.04Z"/>
    <path class="st0" d="M180.78,179.96c0-1.76,1.47-3.21,3.28-3.21s3.28,1.43,3.28,3.21-1.47,3.21-3.28,3.21-3.28-1.43-3.28-3.21h0Z"/>
    <path class="st0" d="M245.59,174.11c-2.71,0-3.95-1.35-3.95-4v-16.25h-8.29v12.06c-1.89-3.95-5.99-6.68-10.76-6.68s-8.87,2.73-10.76,6.68v-6.44h-8.19v11.36c0,2.06-1.1,3.44-2.95,3.44s-2.95-1.39-2.95-3.44v-11.36h-8.31v11.46c0,7.02,4.42,11.42,11.26,11.42,5.49,0,9.4-2.96,10.7-7.78,1.6,4.54,6.01,7.78,11.21,7.78s9.49-3.17,11.16-7.6c1.23,5.15,5.23,7.42,10.58,7.42h2.1v-8.09h-.83ZM222.59,174.28c-1.97,0-3.57-1.56-3.57-3.48s1.6-3.48,3.57-3.48,3.57,1.56,3.57,3.48-1.6,3.48-3.57,3.48h0Z"/>
    <path class="st1" d="M40.3,183.37h.37c2.1,0,4.01-.49,5.72-1.46,1.75-1,3.14-2.35,4.19-4.06,1.05-1.73,1.58-3.71,1.58-5.92s-.51-4.18-1.53-5.88c-1-1.7-2.36-3.04-4.11-4.01-1.75-1-3.69-1.5-5.85-1.5s-4.15.5-5.9,1.5c-1.75,1-3.13,2.35-4.15,4.06-.95,1.61-1.43,3.42-1.48,5.47h4.08c.05-1.34.38-2.53.98-3.55.66-1.16,1.56-2.08,2.66-2.76,1.14-.7,2.42-1.05,3.82-1.05s2.63.35,3.73,1.05c1.14.68,2.02,1.6,2.66,2.76.66,1.14,1,2.44,1,3.94s-.33,2.79-1,3.97c-.64,1.19-1.52,2.12-2.66,2.8-1.1.68-2.35,1.02-3.73,1.02h-.37v3.65h0v-.04Z"/>
  </g>
  <rect class="st0" x="5.04" y="131.86" width="291.04" height="2"/>
</svg>