<?xml version="1.0" encoding="UTF-8"?>
<svg id="Camada_1" xmlns="http://www.w3.org/2000/svg" version="1.1" viewBox="0 0 615.79 129.88">
  <!-- Generator: Adobe Illustrator 30.2.1, SVG Export Plug-In . SVG Version: 2.1.1 Build 1)  -->
  <defs>
    <style>
      .st0, .st1 {
        fill: #fff;
      }

      .st1 {
        font-family: NeueHaasDisplay-Roman, 'Neue Haas Grotesk Display Pro';
        font-size: 32.27px;
      }
    </style>
  </defs>
  <g>
    <path class="st0" d="M287.92,18.78c-8.09-6.52-20.41-5.07-26.91,3.03-2.87,3.58-4.15,7.7-4.57,12.13-.28,2.99-1.24,5.7-2.55,8.34-4.27,8.58-10.4,15.63-17.8,21.61-8.73,7.06-18.32,11.93-29.79,12.44-5.11.22-9.39,2.65-12.73,6.47-9.86,11.26-3.8,29.1,10.8,32.02h0c11.07,2.21,21.6-5.55,23.08-16.78.41-3.12,1.2-6.28,2.41-9.17,5.57-13.26,14.96-23.13,27.41-30.09,6.02-3.36,12.44-5.24,19.44-5.2,5.76.04,10.57-2.49,14.19-6.91,7.12-8.66,5.74-20.86-2.98-27.89Z"/>
    <polygon class="st0" points="153.11 16.72 178.9 16.72 178.9 0 110.6 0 110.6 16.72 136.4 16.72 136.4 113.16 110.61 113.16 110.61 129.88 178.91 129.88 178.91 113.16 153.11 113.16 153.11 16.72"/>
    <path class="st0" d="M23.99,0L0,27.98v101.9h16.72v-52.4h52.5v52.4h16.72V27.72L59.48,0H23.99ZM69.22,60.76H16.72v-26.6l14.95-17.45h20.65l16.89,17.7v26.34Z"/>
    <path class="st0" d="M406.07,27.72L379.61,0h-59.48v129.88h16.72v-52.4h39.73l12.77,19.27v33.13h16.72v-38.17l-14.08-21.25,14.08-13.38v-29.36ZM389.35,49.91l-11.42,10.85h-41.09V16.72h35.61l16.89,17.7v15.49Z"/>
  </g>
  <text class="st1" transform="translate(453.04 38.35)"><tspan x="0" y="0">Agentic AI </tspan><tspan x="0" y="38.73">Software </tspan><tspan x="0" y="77.45">Engineering</tspan></text>
</svg>