<?xml version="1.0" encoding="UTF-8"?>
<svg id="Camada_1" xmlns="http://www.w3.org/2000/svg" version="1.1" viewBox="0 0 474.9 195.97">
  <!-- Generator: Adobe Illustrator 30.1.0, SVG Export Plug-In . SVG Version: 2.1.1 Build 136)  -->
  <defs>
    <style>
      .st0, .st1 {
        fill: #fff;
      }

      .st1 {
        fill-rule: evenodd;
      }
    </style>
  </defs>
  <g>
    <path class="st1" d="M210.17,22.66c-5.79-4.66-14.61-3.62-19.27,2.16-2.06,2.56-2.97,5.51-3.27,8.68-.2,2.14-.89,4.08-1.83,5.97-3.06,6.14-7.45,11.18-12.75,15.46-6.25,5.05-13.12,8.54-21.34,8.9-3.66.16-6.73,1.9-9.11,4.63-7.06,8.06-2.73,20.82,7.73,22.91h0c7.92,1.58,15.46-3.97,16.53-12.01.3-2.24.86-4.49,1.72-6.57,3.99-9.48,10.71-16.55,19.63-21.53,4.31-2.4,8.92-3.75,13.92-3.72,4.13.02,7.56-1.78,10.16-4.94,5.1-6.2,4.1-14.93-2.14-19.96h.01,0Z"/>
    <polygon class="st1" points="113.62 21.15 132.11 21.15 132.11 9.18 83.13 9.18 83.13 21.15 101.64 21.15 101.64 90.22 83.15 90.22 83.15 102.2 132.11 102.2 132.11 90.22 113.62 90.22 113.62 21.15 113.62 21.15 113.62 21.15"/>
    <path class="st1" d="M21.07,9.18L3.9,29.22v72.99h11.96v-37.54h37.58v37.54h11.96V29.04l-18.93-19.86h-25.41ZM53.44,52.7H15.86v-19.04l10.7-12.49h14.78l12.09,12.67v18.86h0Z"/>
    <path class="st1" d="M294.94,29.04l-18.98-19.86h-42.66v93.02h11.99v-37.54h28.49l9.16,13.8v23.72h11.99v-27.34l-10.09-15.21,10.09-9.59v-21.03h.01ZM282.94,44.92l-8.19,7.77h-29.47v-31.54h25.55l12.12,12.67v11.1h-.01Z"/>
    <path class="st1" d="M319.59,30.21l7.91-21.84h3.03l7.94,21.84h-2.95l-2.29-6.66h-8.57l-2.31,6.66h-2.76ZM328,13.98l-2.56,7.33h7.03l-2.46-7.33-.96-3.09h-.06c-.38,1.22-.71,2.25-.99,3.09h0Z"/>
    <path class="st1" d="M346.19,35.36c-2,0-3.59-.38-4.73-1.13-1.14-.75-1.79-1.82-1.94-3.2h2.29c.22,1.6,1.67,2.39,4.32,2.39,3,0,4.49-1.35,4.49-4.04v-2.22h-.06c-.63.82-1.3,1.41-2,1.82-.71.41-1.59.61-2.65.61-2.03,0-3.68-.72-4.95-2.19-1.27-1.46-1.92-3.31-1.92-5.58s.65-4.24,1.94-5.64c1.28-1.4,2.89-2.09,4.8-2.09,2.06,0,3.67.79,4.81,2.37h.06v-1.99h2.46v14.83c0,1.99-.62,3.52-1.84,4.54-1.22,1.02-2.92,1.54-5.07,1.54v-.03h0ZM346.03,27.53c3.18,0,4.78-1.95,4.78-5.83s-1.6-5.54-4.81-5.54c-1.44,0-2.54.52-3.3,1.54-.76,1.04-1.14,2.42-1.14,4.16s.38,3.13,1.16,4.15,1.87,1.52,3.32,1.52h0Z"/>
    <path class="st1" d="M363.07,30.58c-2.32,0-4.16-.79-5.53-2.38-1.36-1.58-2.04-3.56-2.04-5.95s.7-4.32,2.07-5.92c1.37-1.6,3.16-2.41,5.34-2.41,2.31,0,4.08.81,5.33,2.44,1.25,1.61,1.88,3.77,1.88,6.46h-12.11c.09,1.68.59,3.02,1.47,4.09.89,1.05,2.07,1.57,3.59,1.57,2.34,0,3.78-1.08,4.33-3.24h2.39c-.36,1.69-1.14,3.01-2.31,3.93-1.17.94-2.64,1.39-4.43,1.39l.02.03h0ZM366.19,17.26c-.79-.9-1.88-1.35-3.27-1.35s-2.5.47-3.32,1.41c-.82.94-1.33,2.15-1.53,3.67h9.42c-.08-1.58-.52-2.83-1.3-3.74h0Z"/>
    <path class="st1" d="M374.95,14.47v2.06h.06c1.2-1.62,2.83-2.43,4.9-2.43,1.64,0,2.91.44,3.83,1.31.92.87,1.37,2.13,1.37,3.75v11.04h-2.42v-10.83c0-1.01-.31-1.8-.92-2.36-.62-.55-1.48-.83-2.58-.83-1.23,0-2.25.41-3.04,1.21-.8.82-1.2,1.86-1.2,3.13v9.68h-2.42v-15.73h2.42v-.02h0Z"/>
    <path class="st1" d="M387.15,16.42v-1.99h2.23v-4.95h2.4v4.95h2.97v1.99h-2.97v10.2c0,.97.51,1.46,1.54,1.46.43,0,.87-.06,1.27-.22h.09v2.12c-.65.14-1.3.22-1.93.22-2.26,0-3.37-1-3.37-3.03v-10.74h-2.23v-.02h0Z"/>
    <path class="st1" d="M397.33,11.42v-3.05h2.41v3.05h-2.41ZM397.33,30.21v-15.79h2.41v15.79h-2.41Z"/>
    <path class="st1" d="M409.71,30.58c-2.28,0-4.11-.79-5.5-2.39-1.37-1.58-2.07-3.56-2.07-5.94s.7-4.34,2.07-5.94c1.37-1.58,3.21-2.39,5.5-2.39,1.83,0,3.33.49,4.5,1.49,1.17.98,1.9,2.33,2.18,4.02h-2.48c-.19-1.08-.63-1.93-1.36-2.53-.73-.62-1.68-.92-2.84-.92-1.61,0-2.86.59-3.74,1.77-.89,1.19-1.31,2.68-1.31,4.5s.44,3.31,1.31,4.48c.88,1.17,2.12,1.76,3.74,1.76,1.25,0,2.24-.35,3-1.03.74-.68,1.17-1.65,1.26-2.88h2.42c-.16,1.9-.82,3.37-1.99,4.42-1.17,1.05-2.73,1.57-4.69,1.57v.02h0Z"/>
    <path class="st1" d="M422.13,30.21l7.99-21.84h3.06l8.02,21.84h-2.98l-2.31-6.66h-8.65l-2.33,6.66h-2.79ZM430.64,13.98l-2.58,7.33h7.1l-2.49-7.33-.97-3.09h-.06c-.38,1.22-.71,2.25-1,3.09h0Z"/>
    <polygon class="st1" points="443.6 8.36 446.19 8.36 446.19 30.21 443.6 30.21 443.6 8.36 443.6 8.36"/>
    <path class="st1" d="M329.09,67.04c-2.87,0-5.08-.72-6.62-2.16-1.55-1.43-2.38-3.3-2.5-5.62h2.64c.36,3.73,2.56,5.59,6.61,5.59,1.53,0,2.76-.35,3.7-1.05.92-.69,1.39-1.7,1.39-3.02,0-.58-.11-1.1-.33-1.54s-.48-.8-.8-1.1c-.31-.28-.77-.55-1.39-.79-.62-.24-1.19-.44-1.72-.58-.53-.14-1.25-.32-2.17-.52-1.09-.24-2-.49-2.72-.74s-1.44-.6-2.16-1.05c-.72-.44-1.25-1.02-1.59-1.71s-.53-1.54-.53-2.53c0-1.78.65-3.18,1.98-4.2,1.33-1.02,3.09-1.54,5.28-1.54,4.81,0,7.51,2.26,8.11,6.78h-2.55c-.2-1.54-.77-2.69-1.7-3.48-.94-.79-2.2-1.16-3.8-1.16-1.49,0-2.66.3-3.51.91-.86.61-1.3,1.46-1.3,2.58,0,.49.09.91.28,1.29s.44.69.75.95c.31.25.72.49,1.23.68.52.2,1.01.36,1.52.5.5.12,1.11.27,1.83.41,1,.2,1.81.39,2.45.57s1.34.43,2.13.77,1.37.74,1.81,1.18c.42.44.8,1.02,1.11,1.75.31.72.47,1.56.47,2.5,0,1.98-.72,3.54-2.17,4.66-1.45,1.12-3.34,1.68-5.7,1.68l-.03.02h0Z"/>
    <path class="st1" d="M351.96,64.67c-1.38,1.57-3.21,2.37-5.51,2.37s-4.13-.78-5.52-2.37c-1.38-1.57-2.08-3.52-2.08-5.87s.7-4.29,2.08-5.87c1.38-1.57,3.22-2.37,5.52-2.37s4.13.78,5.51,2.37c1.38,1.57,2.06,3.52,2.06,5.87s-.68,4.29-2.06,5.87h0ZM342.7,63.23c.89,1.16,2.13,1.74,3.76,1.74s2.87-.58,3.75-1.74c.87-1.16,1.3-2.63,1.3-4.43s-.44-3.3-1.32-4.46c-.89-1.16-2.13-1.74-3.73-1.74s-2.87.58-3.76,1.75-1.32,2.65-1.32,4.45.44,3.27,1.32,4.43h0Z"/>
    <path class="st1" d="M355.13,52.89v-2.01h2.11v-2.53c0-1.3.34-2.25,1.04-2.83.7-.59,1.71-.87,3.03-.87.37,0,.78.02,1.23.06v2.11c-.28-.02-.54-.03-.78-.03-.78,0-1.32.13-1.63.36-.31.24-.48.68-.48,1.32v2.41h2.86v2.01h-2.86v13.79h-2.41v-13.79h-2.11v.02h0Z"/>
    <path class="st1" d="M363.65,52.89v-1.99h2.28v-4.95h2.46v4.95h3.04v1.99h-3.04v10.2c0,.97.52,1.46,1.58,1.46.44,0,.89-.06,1.3-.22h.09v2.12c-.66.14-1.33.22-1.98.22-2.31,0-3.45-1-3.45-3.03v-10.74h-2.28v-.02h0Z"/>
    <path class="st1" d="M377.64,66.67l-4.92-15.73h2.62l2.73,9.71.84,3.37h.06c.3-1.39.56-2.49.78-3.31l2.62-9.77h2.56l2.52,9.77.75,3.31h.06c.32-1.39.61-2.51.88-3.37l2.88-9.71h2.52l-5.08,15.73h-2.49l-2.59-9.52-.75-3.29h-.06c-.28,1.32-.53,2.41-.78,3.29l-2.62,9.52h-2.54Z"/>
    <path class="st1" d="M408.18,66.71c-1.55,0-2.46-.79-2.7-2.34h-.03c-1.3,1.67-3.04,2.48-5.22,2.48-1.55,0-2.84-.38-3.82-1.12-1-.75-1.49-1.82-1.49-3.25,0-.72.11-1.37.35-1.9.24-.53.52-.97.89-1.3s.87-.63,1.51-.88,1.25-.44,1.84-.58c.59-.12,1.33-.27,2.25-.41.59-.08,1.01-.14,1.27-.2.25-.05.59-.12.98-.24.39-.11.68-.24.86-.38.16-.14.32-.33.46-.58.14-.24.21-.52.21-.85,0-.9-.3-1.57-.92-2.04s-1.49-.71-2.6-.71c-2.54,0-3.84,1.15-3.92,3.46h-2.36c.05-1.6.59-2.87,1.65-3.85,1.06-.97,2.6-1.46,4.6-1.46,3.87,0,5.8,1.67,5.8,4.98v7.46c0,.69.11,1.18.35,1.46.24.28.66.36,1.32.2h.09v1.79c-.41.16-.86.24-1.33.24l-.03.02h0ZM400.76,64.99c1.52,0,2.7-.44,3.52-1.32s1.25-1.84,1.25-2.89v-2.67c-.74.47-1.95.85-3.58,1.15-.6.12-1.08.22-1.43.28-.35.08-.74.19-1.19.36s-.78.36-1,.56c-.22.2-.41.47-.57.8-.16.33-.24.72-.24,1.16,0,1.7,1.08,2.55,3.25,2.55l-.02.02Z"/>
    <path class="st1" d="M413.66,50.93v2.61h.06c.51-.83,1.15-1.51,1.97-2.02.8-.52,1.7-.77,2.68-.77.36,0,.69.06.99.19v2.38h-.09c-.3-.09-.66-.16-1.09-.16-1.24,0-2.32.44-3.2,1.32-.88.88-1.32,2.03-1.32,3.45v8.73h-2.44v-15.73h2.44v-.02h0Z"/>
    <path class="st1" d="M427.67,67.04c-2.32,0-4.16-.79-5.53-2.38-1.36-1.58-2.04-3.56-2.04-5.95s.7-4.32,2.07-5.92c1.37-1.6,3.16-2.41,5.34-2.41,2.31,0,4.08.81,5.33,2.44,1.25,1.61,1.88,3.77,1.88,6.46h-12.11c.09,1.68.59,3.02,1.47,4.09.89,1.05,2.07,1.57,3.59,1.57,2.34,0,3.78-1.08,4.33-3.24h2.39c-.36,1.69-1.14,3.01-2.31,3.93-1.17.94-2.64,1.39-4.43,1.39l.02.03h0ZM430.78,53.71c-.79-.9-1.88-1.35-3.27-1.35s-2.5.47-3.32,1.41c-.82.94-1.33,2.15-1.53,3.67h9.42c-.08-1.58-.52-2.83-1.3-3.74h0Z"/>
    <polygon class="st1" points="321.26 103.12 321.26 81.29 336.45 81.29 336.45 83.71 323.96 83.71 323.96 90.6 335.3 90.6 335.3 92.93 323.96 92.93 323.96 100.6 336.81 100.6 336.81 103.13 321.26 103.13 321.26 103.12 321.26 103.12"/>
    <path class="st1" d="M342.04,87.39v2.06h.06c1.22-1.62,2.87-2.43,4.98-2.43,1.66,0,2.95.44,3.88,1.31.93.87,1.4,2.13,1.4,3.75v11.04h-2.46v-10.83c0-1.01-.32-1.8-.93-2.36-.63-.55-1.51-.83-2.61-.83-1.25,0-2.28.41-3.09,1.21-.81.82-1.22,1.86-1.22,3.13v9.68h-2.46v-15.73h2.46v-.02h0Z"/>
    <path class="st1" d="M361.83,108.28c-1.97,0-3.54-.38-4.67-1.13s-1.77-1.82-1.91-3.2h2.26c.22,1.6,1.64,2.39,4.26,2.39,2.96,0,4.43-1.35,4.43-4.04v-2.22h-.06c-.63.82-1.28,1.41-1.97,1.82-.71.41-1.57.61-2.62.61-2.01,0-3.64-.72-4.89-2.19s-1.89-3.31-1.89-5.58.64-4.24,1.91-5.64c1.27-1.4,2.85-2.09,4.73-2.09,2.04,0,3.62.79,4.75,2.37h.06v-1.99h2.43v14.83c0,1.99-.61,3.52-1.82,4.54-1.21,1.02-2.88,1.54-5,1.54v-.03h0ZM361.69,100.46c3.13,0,4.72-1.95,4.72-5.83s-1.58-5.54-4.75-5.54c-1.43,0-2.51.52-3.26,1.54-.75,1.04-1.13,2.42-1.13,4.16s.38,3.13,1.14,4.15c.77,1.02,1.85,1.52,3.28,1.52h0Z"/>
    <path class="st1" d="M371.97,84.34v-3.05h2.41v3.05h-2.41ZM371.97,103.13v-15.79h2.41v15.79h-2.41Z"/>
    <path class="st1" d="M380.17,87.39v2.06h.06c1.22-1.62,2.87-2.43,4.98-2.43,1.66,0,2.95.44,3.88,1.31.93.87,1.4,2.13,1.4,3.75v11.04h-2.46v-10.83c0-1.01-.32-1.8-.93-2.36-.63-.55-1.51-.83-2.61-.83-1.25,0-2.28.41-3.09,1.21-.81.82-1.22,1.86-1.22,3.13v9.68h-2.46v-15.73h2.46v-.02h0Z"/>
    <path class="st1" d="M400.28,103.5c-2.32,0-4.16-.78-5.53-2.35-1.36-1.57-2.04-3.52-2.04-5.89s.7-4.27,2.07-5.86,3.16-2.38,5.34-2.38c2.31,0,4.08.8,5.33,2.41,1.25,1.6,1.88,3.73,1.88,6.39h-12.11c.09,1.66.59,2.99,1.47,4.04.89,1.03,2.07,1.55,3.59,1.55,2.34,0,3.78-1.06,4.33-3.21h2.39c-.36,1.68-1.14,2.97-2.31,3.88-1.17.92-2.64,1.38-4.43,1.38l.02.03h0ZM403.39,90.32c-.79-.89-1.88-1.33-3.27-1.33s-2.5.47-3.32,1.39c-.82.92-1.33,2.13-1.53,3.63h9.42c-.08-1.57-.52-2.8-1.3-3.7h0Z"/>
    <path class="st1" d="M416.38,103.5c-2.32,0-4.16-.78-5.53-2.35-1.36-1.57-2.04-3.52-2.04-5.89s.7-4.27,2.07-5.86c1.37-1.58,3.16-2.38,5.34-2.38,2.31,0,4.08.8,5.33,2.41,1.25,1.6,1.88,3.73,1.88,6.39h-12.11c.09,1.66.59,2.99,1.47,4.04.89,1.03,2.07,1.55,3.59,1.55,2.34,0,3.78-1.06,4.33-3.21h2.39c-.36,1.68-1.14,2.97-2.31,3.88-1.17.92-2.64,1.38-4.43,1.38l.02.03h0ZM419.49,90.32c-.79-.89-1.88-1.33-3.27-1.33s-2.5.47-3.32,1.39c-.82.92-1.33,2.13-1.53,3.63h9.42c-.08-1.57-.52-2.8-1.3-3.7h0Z"/>
    <path class="st1" d="M428.28,87.39v2.61h.06c.51-.83,1.15-1.51,1.97-2.02.8-.52,1.7-.77,2.68-.77.36,0,.69.06.99.19v2.38h-.09c-.3-.09-.66-.16-1.09-.16-1.24,0-2.32.44-3.2,1.32-.88.88-1.32,2.03-1.32,3.45v8.73h-2.44v-15.73h2.44v-.02h0Z"/>
    <path class="st1" d="M436.2,84.34v-3.05h2.41v3.05h-2.41ZM436.2,103.13v-15.79h2.41v15.79h-2.41Z"/>
    <path class="st1" d="M444.36,87.39v2.06h.06c1.2-1.62,2.83-2.43,4.9-2.43,1.64,0,2.91.44,3.83,1.31.92.87,1.37,2.13,1.37,3.75v11.04h-2.42v-10.83c0-1.01-.31-1.8-.92-2.36-.62-.55-1.48-.83-2.58-.83-1.23,0-2.25.41-3.04,1.21-.8.82-1.2,1.86-1.2,3.13v9.68h-2.42v-15.73h2.42v-.02h0Z"/>
    <path class="st1" d="M464.09,108.28c-2,0-3.59-.38-4.73-1.13s-1.79-1.82-1.94-3.2h2.29c.22,1.6,1.67,2.39,4.32,2.39,3,0,4.49-1.35,4.49-4.04v-2.22h-.06c-.63.82-1.3,1.41-2,1.82-.71.41-1.59.61-2.65.61-2.03,0-3.68-.72-4.95-2.19-1.27-1.46-1.92-3.31-1.92-5.58s.65-4.24,1.94-5.64c1.28-1.4,2.89-2.09,4.8-2.09,2.06,0,3.67.79,4.81,2.37h.06v-1.99h2.46v14.83c0,1.99-.62,3.52-1.84,4.54-1.22,1.02-2.92,1.54-5.07,1.54v-.03h0ZM463.93,100.46c3.18,0,4.78-1.95,4.78-5.83s-1.6-5.54-4.81-5.54c-1.44,0-2.54.52-3.3,1.54-.76,1.04-1.14,2.42-1.14,4.16s.38,3.13,1.16,4.15,1.87,1.52,3.32,1.52h0Z"/>
  </g>
  <g>
    <polygon class="st1" points="42.55 165.1 35.82 165.1 42.55 171.66 42.55 165.1 42.55 165.1 42.55 165.1"/>
    <path class="st0" d="M15.57,180.01c-7.42,0-11.67-5.51-11.67-11.86s4.24-11.86,11.67-11.86c5.51,0,10.27,3.19,10.93,8.38h-4.54c-.42-2.59-3.13-4.51-6.3-4.51-4.72,0-7.05,3.57-7.05,7.97s2.39,7.97,7.05,7.97c3.22,0,5.6-1.64,6.35-4.24h4.49c-.75,4.83-4.95,8.11-10.93,8.11h0v.03Z"/>
    <path class="st0" d="M167.52,179.9c-2.26,0-4.23-.55-5.9-1.64-1.67-1.09-2.86-2.56-3.55-4.42l3.09-1.47c.64,1.32,1.52,2.35,2.65,3.11,1.11.77,2.35,1.14,3.73,1.14,1.23,0,2.25-.28,3.05-.86.82-.58,1.21-1.32,1.21-2.25,0-.65-.19-1.16-.59-1.55-.37-.41-.82-.73-1.34-.93-.52-.24-1.01-.42-1.46-.54l-3.39-.93c-2.03-.58-3.53-1.39-4.47-2.45-.92-1.06-1.38-2.3-1.38-3.72,0-1.32.33-2.44,1.01-3.39.69-.98,1.64-1.75,2.8-2.29,1.2-.55,2.54-.82,4.01-.82,1.98,0,3.76.49,5.32,1.47,1.58.98,2.72,2.35,3.39,4.13l-3.18,1.43c-.5-1.14-1.25-2.04-2.26-2.7-1.01-.68-2.13-1.02-3.39-1.02-1.14,0-2.04.28-2.72.86-.66.55-1.01,1.24-1.01,2.08,0,.63.17,1.14.5,1.55.33.38.74.68,1.21.91.47.19.93.36,1.38.49l3.68,1.06c1.84.51,3.27,1.32,4.27,2.4,1.04,1.09,1.56,2.4,1.56,3.92,0,1.23-.35,2.33-1.05,3.31-.69.98-1.66,1.75-2.89,2.29-1.23.55-2.65.82-4.27.82h-.03.01Z"/>
    <path class="st0" d="M147.9,179.9c-2.26,0-4.23-.55-5.9-1.64-1.67-1.09-2.86-2.56-3.55-4.42l3.09-1.47c.64,1.32,1.52,2.35,2.65,3.11,1.11.77,2.35,1.14,3.73,1.14,1.23,0,2.25-.28,3.05-.86.81-.58,1.21-1.32,1.21-2.25,0-.65-.19-1.16-.59-1.55-.37-.41-.82-.73-1.34-.93-.52-.24-1.01-.42-1.46-.54l-3.39-.93c-2.03-.58-3.53-1.39-4.47-2.45-.92-1.06-1.38-2.3-1.38-3.72,0-1.32.33-2.44,1.01-3.39.69-.98,1.64-1.75,2.8-2.29,1.2-.55,2.54-.82,4.01-.82,1.98,0,3.76.49,5.32,1.47,1.58.98,2.72,2.35,3.39,4.13l-3.18,1.43c-.5-1.14-1.25-2.04-2.26-2.7-1.01-.68-2.13-1.02-3.39-1.02-1.14,0-2.06.28-2.72.86-.66.55-1.01,1.24-1.01,2.08,0,.63.17,1.14.5,1.55.33.38.74.68,1.21.91.47.19.93.36,1.38.49l3.68,1.06c1.84.51,3.26,1.32,4.27,2.4,1.04,1.09,1.56,2.4,1.56,3.92,0,1.23-.35,2.33-1.05,3.31-.69.98-1.66,1.75-2.89,2.29s-2.65.82-4.27.82h-.03.01Z"/>
    <path class="st0" d="M123.96,179.9c-1.48,0-2.79-.26-3.94-.78-1.11-.55-1.99-1.29-2.65-2.2-.64-.96-.96-2.04-.96-3.27s.24-2.22.75-3.14c.52-.96,1.34-1.75,2.43-2.4,1.11-.65,2.52-1.11,4.18-1.39l8.37-1.34v3.18l-7.49,1.23c-1.46.24-2.52.69-3.18,1.34-.64.65-.96,1.46-.96,2.4s.37,1.65,1.09,2.25c.75.6,1.69.89,2.8.89,1.42,0,2.65-.28,3.68-.86,1.06-.6,1.88-1.41,2.47-2.4.61-1.01.92-2.12.92-3.35v-5.6c0-1.2-.46-2.17-1.38-2.9-.89-.77-2.08-1.14-3.57-1.14-1.29,0-2.43.33-3.44.98-.97.63-1.7,1.47-2.17,2.53l-3.39-1.71c.42-1.01,1.09-1.9,2.01-2.7.92-.82,1.99-1.46,3.22-1.92s2.52-.69,3.86-.69c1.73,0,3.25.33,4.56.98,1.32.63,2.33,1.52,3.05,2.66.75,1.11,1.14,2.43,1.14,3.92v14.96h-3.81v-4.17l.72.24c-.47.87-1.11,1.64-1.93,2.29s-1.75,1.16-2.85,1.55c-1.09.38-2.27.58-3.57.58h0l.03-.04Z"/>
    <path class="st0" d="M91.15,187.58v-30.2h3.81v4.74l-.5-.93c.84-1.32,1.98-2.35,3.44-3.11,1.46-.79,3.12-1.19,4.98-1.19,2.12,0,4.01.51,5.69,1.52,1.7,1.01,3.04,2.38,4.01,4.13.97,1.71,1.46,3.68,1.46,5.89s-.49,4.1-1.46,5.84c-.97,1.75-2.33,3.12-4.01,4.13-1.67,1.01-3.59,1.52-5.74,1.52-1.81,0-3.48-.4-4.98-1.19-1.48-.79-2.62-1.9-3.44-3.35l.63-.65v12.87h-3.88v-.03ZM102.53,176.22c1.42,0,2.7-.35,3.81-1.02,1.11-.68,1.98-1.61,2.59-2.79.64-1.2.96-2.53.96-4s-.32-2.86-.96-4c-.61-1.16-1.48-2.1-2.59-2.79-1.11-.7-2.39-1.06-3.81-1.06s-2.71.35-3.86,1.02c-1.11.68-2.01,1.62-2.67,2.82-.64,1.16-.96,2.5-.96,4s.32,2.81.96,4c.66,1.16,1.56,2.1,2.67,2.79,1.14.68,2.43,1.02,3.86,1.02h0Z"/>
    <path class="st0" d="M54.54,179.45v-22.03h3.81v4.5l-.55-.69c.56-1.39,1.46-2.45,2.67-3.18,1.23-.73,2.61-1.11,4.14-1.11,1.75,0,3.34.47,4.73,1.43,1.42.96,2.4,2.2,2.93,3.77l-1.09.04c.59-1.71,1.58-3.02,2.96-3.88,1.39-.89,2.94-1.34,4.65-1.34,1.56,0,2.96.36,4.23,1.06,1.29.7,2.3,1.69,3.05,2.94.75,1.25,1.14,2.67,1.14,4.26v14.26h-3.94v-13.03c0-1.23-.22-2.26-.66-3.11-.45-.84-1.06-1.5-1.84-1.97-.75-.49-1.65-.73-2.67-.73s-1.9.24-2.72.73c-.78.46-1.41,1.14-1.88,2.01-.45.84-.66,1.87-.66,3.07v13.03h-3.94v-13.03c0-1.23-.22-2.26-.66-3.11-.45-.84-1.06-1.5-1.84-1.97-.75-.49-1.65-.73-2.67-.73s-1.9.24-2.72.73c-.78.46-1.41,1.14-1.88,2.01-.45.84-.66,1.87-.66,3.07v13.03h-3.88v-.03h-.04Z"/>
    <path class="st0" d="M179.64,176.42c0-1.76,1.47-3.21,3.28-3.21s3.28,1.43,3.28,3.21-1.47,3.21-3.28,3.21-3.28-1.43-3.28-3.21h0Z"/>
    <path class="st0" d="M244.46,170.57c-2.71,0-3.95-1.35-3.95-4v-16.25h-8.29v12.06c-1.89-3.95-5.99-6.68-10.76-6.68s-8.87,2.73-10.76,6.68v-6.44h-8.19v11.36c0,2.06-1.1,3.44-2.95,3.44s-2.95-1.39-2.95-3.44v-11.36h-8.31v11.46c0,7.02,4.42,11.42,11.26,11.42,5.49,0,9.4-2.96,10.7-7.78,1.6,4.54,6.01,7.78,11.21,7.78s9.49-3.17,11.16-7.6c1.23,5.15,5.23,7.42,10.58,7.42h2.1v-8.09h-.83ZM221.46,170.74c-1.97,0-3.57-1.56-3.57-3.48s1.6-3.48,3.57-3.48,3.57,1.56,3.57,3.48-1.6,3.48-3.57,3.48h0Z"/>
    <path class="st1" d="M39.16,179.84h.37c2.1,0,4.01-.49,5.72-1.46,1.75-1,3.14-2.35,4.19-4.06,1.05-1.73,1.58-3.71,1.58-5.92s-.51-4.18-1.53-5.88c-1-1.7-2.36-3.04-4.11-4.01-1.75-1-3.69-1.5-5.85-1.5s-4.15.5-5.9,1.5-3.13,2.35-4.15,4.06c-.95,1.61-1.43,3.42-1.48,5.47h4.08c.05-1.34.38-2.53.98-3.55.66-1.16,1.56-2.08,2.66-2.76,1.14-.7,2.42-1.05,3.82-1.05s2.63.35,3.73,1.05c1.14.68,2.02,1.6,2.66,2.76.66,1.14,1,2.44,1,3.94s-.33,2.79-1,3.97c-.64,1.19-1.52,2.12-2.66,2.8-1.1.68-2.35,1.02-3.73,1.02h-.37v3.65h0v-.04Z"/>
  </g>
  <rect class="st0" x="3.9" y="128.32" width="467.09" height="2"/>
</svg>