<?xml version="1.0" encoding="UTF-8"?>
<svg id="Camada_1" xmlns="http://www.w3.org/2000/svg" version="1.1" viewBox="0 0 134.06 80.16">
  <!-- Generator: Adobe Illustrator 30.3.0, SVG Export Plug-In . SVG Version: 2.1.3 Build 182)  -->
  <defs>
    <style>
      .st0 {
        fill-rule: evenodd;
      }
    </style>
  </defs>
  <path d="M37.78,29.1c0,1.67.17,2.99.51,3.98.34.99.82,2.06,1.44,3.2.21.36.31.7.31,1.01,0,.47-.29.91-.86,1.33l-2.81,1.87c-.42.26-.81.39-1.17.39-.47,0-.91-.21-1.33-.62-.62-.62-1.16-1.31-1.6-2.07-.44-.75-.9-1.62-1.37-2.61-3.48,4.11-7.85,6.16-13.11,6.16-3.74,0-6.71-1.07-8.89-3.2-2.18-2.13-3.28-4.99-3.28-8.58,0-3.8,1.35-6.85,4.06-9.17,2.7-2.31,6.34-3.47,10.92-3.47,1.51,0,3.08.12,4.72.35,1.64.23,3.34.56,5.11.98v-3.28c0-3.38-.7-5.76-2.11-7.14-1.4-1.38-3.82-2.07-7.26-2.07-1.56,0-3.16.2-4.8.59-1.64.39-3.24.9-4.8,1.52-.73.31-1.25.51-1.56.59-.31.08-.55.12-.7.12-.62,0-.94-.47-.94-1.4v-2.18c0-.73.1-1.25.31-1.56.21-.31.62-.62,1.25-.94,1.56-.78,3.43-1.46,5.62-2.03,2.18-.57,4.5-.86,6.94-.86,5.3,0,9.19,1.21,11.66,3.63,2.47,2.42,3.71,6.07,3.71,10.96v14.51ZM19.68,35.89c1.46,0,2.99-.27,4.6-.82,1.61-.55,3.02-1.49,4.21-2.85.73-.83,1.23-1.78,1.52-2.85.29-1.07.43-2.35.43-3.86v-1.87c-1.3-.31-2.67-.56-4.1-.74-1.43-.18-2.82-.27-4.17-.27-2.96,0-5.18.6-6.63,1.79-1.46,1.2-2.18,2.91-2.18,5.15,0,2.08.55,3.65,1.64,4.72,1.09,1.07,2.65,1.6,4.68,1.6ZM55.48,40.72c-.78,0-1.35-.14-1.72-.43-.36-.29-.68-.87-.94-1.76L42.38,4.06c-.26-.88-.39-1.48-.39-1.79,0-.73.36-1.09,1.09-1.09h4.37c.83,0,1.42.14,1.76.43.34.29.64.87.9,1.76l7.49,29.49,6.94-29.49c.21-.88.49-1.47.86-1.76.36-.29.96-.43,1.79-.43h3.59c.83,0,1.43.14,1.79.43.36.29.65.87.86,1.76l7.02,29.88,7.72-29.88c.26-.88.56-1.47.9-1.76.34-.29.92-.43,1.76-.43h4.13c.73,0,1.09.36,1.09,1.09,0,.21-.03.44-.08.7-.05.26-.16.62-.31,1.09l-10.77,34.48c-.26.89-.57,1.47-.94,1.76-.36.29-.94.43-1.72.43h-3.82c-.83,0-1.43-.16-1.79-.47-.36-.31-.65-.91-.86-1.79l-6.94-28.71-6.86,28.71c-.21.89-.49,1.48-.86,1.79-.36.31-.96.47-1.79.47h-3.82ZM112.75,41.89c-2.34,0-4.63-.26-6.87-.78-2.24-.52-3.95-1.12-5.15-1.79-.73-.42-1.18-.83-1.37-1.25-.18-.42-.27-.83-.27-1.25v-2.26c0-.94.34-1.4,1.01-1.4.26,0,.53.05.82.16.29.1.66.26,1.13.47,1.51.68,3.15,1.2,4.91,1.56,1.77.36,3.54.55,5.3.55,2.81,0,4.98-.49,6.51-1.48,1.53-.99,2.3-2.39,2.3-4.21,0-1.25-.4-2.29-1.21-3.12-.81-.83-2.3-1.61-4.49-2.34l-6.48-2.03c-3.28-1.04-5.66-2.55-7.14-4.52-1.48-1.98-2.22-4.13-2.22-6.47,0-1.87.4-3.52,1.21-4.95.81-1.43,1.87-2.65,3.2-3.67,1.33-1.01,2.87-1.78,4.64-2.3,1.77-.52,3.64-.78,5.62-.78.99,0,1.99.07,3,.2,1.01.13,1.98.3,2.89.51.91.21,1.76.44,2.54.7.78.26,1.4.52,1.87.78.62.36,1.07.73,1.33,1.09.26.36.39.86.39,1.48v2.11c0,.94-.34,1.4-1.01,1.4-.36,0-.94-.18-1.72-.55-2.55-1.14-5.41-1.72-8.58-1.72-2.55,0-4.52.42-5.93,1.25-1.4.83-2.11,2.16-2.11,3.98,0,1.25.44,2.3,1.33,3.16.88.86,2.52,1.68,4.91,2.46l6.32,2.03c3.22,1.04,5.53,2.47,6.9,4.29,1.38,1.82,2.07,3.9,2.07,6.24,0,1.92-.39,3.65-1.17,5.19-.78,1.53-1.86,2.85-3.24,3.94-1.38,1.09-3.03,1.93-4.95,2.5-1.92.57-4.03.86-6.32.86Z"/>
  <path class="st0" d="M121.18,63.57c-14.68,10.83-35.96,16.59-54.28,16.59-25.68,0-48.8-9.49-66.3-25.29-1.37-1.24-.15-2.94,1.5-1.97,18.88,10.99,42.23,17.6,66.34,17.6,16.27,0,34.15-3.38,50.6-10.36,2.48-1.05,4.56,1.63,2.13,3.43ZM123.43,73.33c-.54,1.34.61,1.88,1.83.87,7.87-6.59,9.91-20.39,8.3-22.38-1.6-1.98-15.37-3.68-23.77,2.22-1.29.91-1.07,2.16.36,1.99,4.73-.57,15.26-1.83,17.14.57,1.88,2.41-2.09,12.31-3.86,16.74Z"/>
</svg>